<?xml version="1.0" standalone="no"?>
<svg viewBox="0 0 200 200" xmlns="http://www.w3.org/2000/svg">
  <path fill="#FF0066" d="M41.7,-72.1C55.7,-64.2,69.9,-56.4,77.9,-44.4C85.8,-32.4,87.6,-16.2,86.2,-0.8C84.7,14.5,80,29,72.8,42.2C65.5,55.5,55.7,67.4,43.1,75.7C30.5,84,15.3,88.7,0.9,87.1C-13.5,85.6,-27,77.8,-40.6,70.2C-54.2,62.5,-68,54.8,-77,43.2C-86,31.5,-90.2,15.7,-89.2,0.6C-88.2,-14.6,-82,-29.2,-73.5,-41.7C-65,-54.3,-54.2,-64.8,-41.6,-73.5C-29,-82.3,-14.5,-89.2,-0.3,-88.7C13.9,-88.1,27.7,-80.1,41.7,-72.1Z" transform="translate(100 100)" />
</svg>
