<svg id="visual" viewBox="0 0 1000 100" width="1000" height="100" xmlns="http://www.w3.org/2000/svg" xmlns:xlink="http://www.w3.org/1999/xlink" version="1.1"><rect x="0" y="0" width="1000" height="100" fill="#FFF5D6"></rect><path d="M0 17L8.8 22C17.7 27 35.3 37 52.8 43.5C70.3 50 87.7 53 105.2 51.7C122.7 50.3 140.3 44.7 158 38C175.7 31.3 193.3 23.7 210.8 25.2C228.3 26.7 245.7 37.3 263.2 37.7C280.7 38 298.3 28 315.8 23.3C333.3 18.7 350.7 19.3 368.2 21.3C385.7 23.3 403.3 26.7 421 30.5C438.7 34.3 456.3 38.7 473.8 42.7C491.3 46.7 508.7 50.3 526.2 46.5C543.7 42.7 561.3 31.3 579 27C596.7 22.7 614.3 25.3 631.8 29.2C649.3 33 666.7 38 684.2 42.7C701.7 47.3 719.3 51.7 736.8 53.8C754.3 56 771.7 56 789.2 49.3C806.7 42.7 824.3 29.3 842 23.3C859.7 17.3 877.3 18.7 894.8 23.7C912.3 28.7 929.7 37.3 947.2 37.3C964.7 37.3 982.3 28.7 991.2 24.3L1000 20L1000 0L991.2 0C982.3 0 964.7 0 947.2 0C929.7 0 912.3 0 894.8 0C877.3 0 859.7 0 842 0C824.3 0 806.7 0 789.2 0C771.7 0 754.3 0 736.8 0C719.3 0 701.7 0 684.2 0C666.7 0 649.3 0 631.8 0C614.3 0 596.7 0 579 0C561.3 0 543.7 0 526.2 0C508.7 0 491.3 0 473.8 0C456.3 0 438.7 0 421 0C403.3 0 385.7 0 368.2 0C350.7 0 333.3 0 315.8 0C298.3 0 280.7 0 263.2 0C245.7 0 228.3 0 210.8 0C193.3 0 175.7 0 158 0C140.3 0 122.7 0 105.2 0C87.7 0 70.3 0 52.8 0C35.3 0 17.7 0 8.8 0L0 0Z" fill="#904B31" stroke-linecap="round" stroke-linejoin="miter"></path></svg>