<svg id="visual" viewBox="0 0 1000 100" width="1000" height="100" xmlns="http://www.w3.org/2000/svg" xmlns:xlink="http://www.w3.org/1999/xlink" version="1.1"><rect x="0" y="0" width="1000" height="100" fill="#FFF5D6"></rect><path d="M0 52L6.7 54.8C13.3 57.7 26.7 63.3 40 64.7C53.3 66 66.7 63 80 57.5C93.3 52 106.7 44 120 47.5C133.3 51 146.7 66 160 73.2C173.3 80.3 186.7 79.7 200 76.2C213.3 72.7 226.7 66.3 240 65.8C253.3 65.3 266.7 70.7 280 68C293.3 65.3 306.7 54.7 320 51.8C333.3 49 346.7 54 360 53C373.3 52 386.7 45 400 44.5C413.3 44 426.7 50 440 56.3C453.3 62.7 466.7 69.3 480 72.5C493.3 75.7 506.7 75.3 520 72C533.3 68.7 546.7 62.3 560 55C573.3 47.7 586.7 39.3 600 34.8C613.3 30.3 626.7 29.7 640 29.3C653.3 29 666.7 29 680 31.2C693.3 33.3 706.7 37.7 720 39C733.3 40.3 746.7 38.7 760 40.7C773.3 42.7 786.7 48.3 800 51.3C813.3 54.3 826.7 54.7 840 52.8C853.3 51 866.7 47 880 51.2C893.3 55.3 906.7 67.7 920 68.8C933.3 70 946.7 60 960 60.3C973.3 60.7 986.7 71.3 993.3 76.7L1000 82L1000 101L993.3 101C986.7 101 973.3 101 960 101C946.7 101 933.3 101 920 101C906.7 101 893.3 101 880 101C866.7 101 853.3 101 840 101C826.7 101 813.3 101 800 101C786.7 101 773.3 101 760 101C746.7 101 733.3 101 720 101C706.7 101 693.3 101 680 101C666.7 101 653.3 101 640 101C626.7 101 613.3 101 600 101C586.7 101 573.3 101 560 101C546.7 101 533.3 101 520 101C506.7 101 493.3 101 480 101C466.7 101 453.3 101 440 101C426.7 101 413.3 101 400 101C386.7 101 373.3 101 360 101C346.7 101 333.3 101 320 101C306.7 101 293.3 101 280 101C266.7 101 253.3 101 240 101C226.7 101 213.3 101 200 101C186.7 101 173.3 101 160 101C146.7 101 133.3 101 120 101C106.7 101 93.3 101 80 101C66.7 101 53.3 101 40 101C26.7 101 13.3 101 6.7 101L0 101Z" fill="#904B31" stroke-linecap="round" stroke-linejoin="miter"></path></svg>